Simulation
nRows=19
nColumns=15
endheader
time  TH_x TH_y TH_z SC_y  SC_z  SC_x  AC_y  AC_z  AC_x  GH_y  GH_z  GH_yy  EL_x  PS_y
2.8725  0.000000  0.000000  0.000000  -33.15783957812391  -2.567274875072619  2.3642691897451154  46.89275598777705  -9.856658869808905  -1.4484711178668308  -4.869335399892958  23.039561432200095  6.133911905225667  14.099357871320066  120.000000
2.92995  0.000000  0.000000  0.000000  -33.99683350355381  -1.168576312412878  1.153991086654861  45.670891301821456  -6.729593417569566  -1.7308618666187845  3.334793878350408  18.164879360711097  2.9351688689311306  14.442706751000578  120.000000
2.9874  0.000000  0.000000  0.000000  -35.14231539601201  -0.005768102370022407  -0.03600079794965142  44.61989238134007  -3.8314137769958014  -1.6993742101671785  14.197221203136532  14.248415560431985  -3.3078261919748915  14.872589949525993  120.000000
3.0448500000000003  0.000000  0.000000  0.000000  -36.50969662688798  0.8750466622671842  -0.9748953600745632  43.78048245651624  -1.3358937308004202  -1.5499553863375737  28.070035629480344  11.444648605677232  -13.109194614432813  15.34867031364429  120.000000
3.1023  0.000000  0.000000  0.000000  -37.99128597722402  1.5081871178632051  -1.619313695635066  43.1678927755308  0.7365269538173836  -1.373208736120502  44.14555374396221  9.759627858715554  -25.739903689331662  15.828858630233945  120.000000
3.15975  0.000000  0.000000  0.000000  -39.49282086212664  1.9714017710208962  -2.0053800522473746  42.76674406038309  2.4171002778405017  -1.209446903335685  60.12201179969189  9.018148481555817  -38.89889241638412  16.284640725493166  120.000000
3.2172  0.000000  0.000000  0.000000  -40.93063750612792  2.31270329667429  -2.1844436310370443  42.53055869298035  3.76042259003041  -1.085712585119443  73.59767943379488  8.89680328271437  -50.131757482412304  16.701302353707497  120.000000
3.2746500000000003  0.000000  0.000000  0.000000  -42.229173929399366  2.564085461808125  -2.2113422013823114  42.399383909483774  4.823302727633942  -1.0094188943534055  83.67373013803395  9.067519813072845  -58.450330486399025  17.08100160234577  120.000000
3.3321  0.000000  0.000000  0.000000  -43.32049321858763  2.749659275098041  -2.1328652027102266  42.31872091878631  5.651135923241804  -0.9938571296960746  90.68138881230294  9.310662497083214  -64.08654858434991  17.435122303301263  120.000000
3.38955  0.000000  0.000000  0.000000  -44.15183638796822  2.885649974735212  -1.9891481019312602  42.249463247822845  6.273020591835806  -1.056438726734838  95.27155820904686  9.524891146627432  -67.60784053340902  17.775021993596575  120.000000
3.447  0.000000  0.000000  0.000000  -44.69405852106071  2.983965672166471  -1.8130254510881316  42.165667282157656  6.693681250697655  -1.1962523613043503  97.98317606499802  9.687514477321766  -69.49925288296494  18.111117774084395  120.000000
3.5044500000000003  0.000000  0.000000  0.000000  -44.935058495339625  3.053032136804427  -1.6366199596284083  42.06809104847698  6.905788538167041  -1.3944214140372846  99.15689756610192  9.816551349511709  -70.08078915804403  18.451320702719997  120.000000
3.5619  0.000000  0.000000  0.000000  -44.878868162119495  3.095130624112276  -1.4898240117954529  41.97028246042449  6.904259458246983  -1.6147552883433922  99.015996900918  9.932037085075043  -69.5795217440792  18.802650955877528  120.000000
3.61935  0.000000  0.000000  0.000000  -44.539688741758674  3.1012745810415963  -1.3953740703653212  41.87997518627263  6.694436794823404  -1.803591442053354  97.74405302248127  10.028464869610362  -68.19959527845774  19.165624678576922  120.000000
3.6768  0.000000  0.000000  0.000000  -43.9400179899475  3.063150731568497  -1.370597026956349  41.82419148688703  6.293193820126353  -1.9030515429133332  95.43184932196985  10.080644484524813  -66.06014485518344  19.53868226627879  120.000000
3.7342500000000003  0.000000  0.000000  0.000000  -43.107707780562  2.9836770392249017  -1.422044388271559  41.86500108076998  5.719961791312403  -1.8686571448217912  92.01390496137384  10.062124350992022  -63.12428793405628  19.919509072787935  120.000000
3.7917  0.000000  0.000000  0.000000  -42.08610784100643  2.865073239529447  -1.5527537864388878  42.07315349841256  4.999945133251532  -1.663683083189019  87.23313689050967  9.95863295486073  -59.14959890037487  20.305490590669056  120.000000
3.84915  0.000000  0.000000  0.000000  -40.93424218860114  2.6983383327088863  -1.75918690786325  42.4951920199786  4.157941381825743  -1.2512175847229294  80.66005532886338  9.780820098793056  -53.69298713588111  20.693940059428336  120.000000
3.9066  0.000000  0.000000  0.000000  -39.72012493208297  2.4692351505667913  -2.032738698858729  43.155462089351126  3.2124724135212053  -0.5995528395184557  71.71083975369001  9.596240905136263  -46.123346255767345  21.084911013260502  120.000000
